<svg width="809" height="1139" viewBox="0 0 809 1139" fill="none" xmlns="http://www.w3.org/2000/svg">
<path d="M404.633 0.859863C181.38 0.859863 0.726624 177.287 0.726624 400.553C0.726624 705.82 354.727 1032.58 404.633 1138.67C454.54 1032.59 808.54 705.82 808.54 400.553C808.54 177.287 627.887 0.859863 404.633 0.859863Z" fill="#682D9F"/>
<path fill-rule="evenodd" clip-rule="evenodd" d="M477.115 182.645C412.699 118.323 302.104 164.134 302.104 255.032C302.104 345.929 412.692 391.772 477.115 327.42C517.166 287.457 517.166 222.645 477.115 182.645ZM162.189 644.613C168.981 651.395 178.338 655.615 188.628 655.615H620.646C641.196 655.615 658.102 638.733 658.102 618.214V564.66C658.102 475.159 584.675 401.865 495.068 401.865H314.199C224.566 401.865 151.164 475.184 151.164 564.66V618.214C151.164 628.489 155.391 637.832 162.183 644.614L162.189 644.613Z" fill="white"/>
</svg>
